<svg width="52" height="88" viewBox="0 0 52 88" fill="none" xmlns="http://www.w3.org/2000/svg">
<path d="M28.749 39.7419C28.3945 40.4093 27.4562 40.4574 27.0353 39.8297L10.7052 15.4777C10.4962 15.166 10.4793 14.7636 10.6614 14.4354L12.866 10.4636C13.2286 9.81042 14.1532 9.77093 14.5701 10.3908L23.2332 23.2709L26.1746 27.6444C26.5915 28.2643 27.5162 28.2248 27.8787 27.5717L30.4373 22.962L37.3668 10.4751C37.5772 10.0959 38.008 9.89559 38.4335 9.97898L42.6572 10.8066C43.3159 10.9357 43.6629 11.6643 43.348 12.2571L28.749 39.7419ZM27.4566 48.0469C27.8776 48.6746 28.8158 48.6265 29.1704 47.9591L49.753 9.20634C50.0678 8.61361 49.721 7.88516 49.0624 7.75597L36.228 5.23841C35.8025 5.15494 35.3716 5.35527 35.1612 5.73445L27.5314 19.4822C27.1689 20.1354 26.2442 20.1749 25.8273 19.555L14.2229 2.30148C13.806 1.68159 12.8813 1.72111 12.5188 2.37431L5.71052 14.6417C5.52842 14.9698 5.54534 15.3722 5.75434 15.6839L27.4566 48.0469Z" fill="url(#paint0_linear)" fill-opacity="0.8"/>
<path d="M30.1641 75.7323C29.8096 76.3998 28.8714 76.4479 28.4505 75.8202L12.1204 51.4682C11.9114 51.1565 11.8944 50.754 12.0766 50.4259L14.2812 46.4541C14.6437 45.8009 15.5684 45.7614 15.9853 46.3813L24.6483 59.2613L27.5898 63.6349C28.0067 64.2548 28.9313 64.2153 29.2939 63.5621L31.8525 58.9525L38.782 46.4656C38.9924 46.0864 39.4232 45.8861 39.8487 45.9695L44.0723 46.7971C44.7311 46.9262 45.0781 47.6547 44.7632 48.2475L30.1641 75.7323ZM28.8718 84.0374C29.2927 84.6651 30.231 84.617 30.5855 83.9495L51.1682 45.1968C51.483 44.6041 51.1361 43.8756 50.4775 43.7465L37.6432 41.2289C37.2176 41.1454 36.7868 41.3457 36.5763 41.7249L28.9466 55.4726C28.584 56.1258 27.6593 56.1654 27.2424 55.5455L15.6381 38.292C15.2211 37.6721 14.2964 37.7116 13.9339 38.3648L7.12568 50.6321C6.94358 50.9602 6.9605 51.3627 7.1695 51.6744L28.8718 84.0374Z" fill="url(#paint1_linear)" fill-opacity="0.8"/>
<defs>
<linearGradient id="paint0_linear" x1="21.079" y1="48.0675" x2="29.331" y2="3.94206" gradientUnits="userSpaceOnUse">
<stop stop-color="#307FE2"/>
<stop offset="1" stop-color="#307FE2" stop-opacity="0"/>
</linearGradient>
<linearGradient id="paint1_linear" x1="22.4942" y1="84.058" x2="30.7462" y2="39.9325" gradientUnits="userSpaceOnUse">
<stop stop-color="#307FE2"/>
<stop offset="1" stop-color="#307FE2" stop-opacity="0"/>
</linearGradient>
</defs>
</svg>
