<svg width="360" height="293" viewBox="0 0 360 293" fill="none" xmlns="http://www.w3.org/2000/svg">
<path d="M189.177 110.111C196.715 110.634 200.972 119.009 196.951 125.407L121.643 245.249C119.646 248.427 116.038 250.219 112.299 249.89L99.4959 248.763C92.0549 248.108 87.9327 239.823 91.8983 233.493L130.596 171.722L140.989 155.133C144.955 148.803 140.832 140.518 133.391 139.863L113.886 138.146L43.3825 131.947C39.0632 131.567 35.4808 128.447 34.5114 124.221L31.7342 112.113C30.2335 105.57 35.4774 99.4364 42.1739 99.9014L189.177 110.111ZM235.095 106.02C239.116 99.6213 234.86 91.2465 227.321 90.7232L14.1282 75.9238C7.43261 75.459 2.18911 81.5915 3.68833 88.1336L16.6582 144.729C17.6269 148.956 21.2096 152.077 25.5294 152.457L95.6963 158.629C103.138 159.283 107.26 167.569 103.295 173.9L54.2049 252.257C50.2391 258.588 54.3617 266.873 61.8031 267.528L123.754 272.977C127.492 273.306 131.1 271.514 133.097 268.336L235.095 106.02Z" fill="url(#paint0_linear)"/>
<path d="M300.374 51.0442C307.913 51.5677 312.169 59.9423 308.148 66.3408L269.422 127.967C267.606 130.857 264.325 132.487 260.925 132.188C254.158 131.592 250.409 124.057 254.015 118.3L273.523 87.1613L275.877 83.4044C279.842 77.0743 275.72 68.7887 268.279 68.1338L263.86 67.7448L225.595 64.3805C221.602 64.0294 218.291 61.1455 217.395 57.2391C216.008 51.1915 220.855 45.5216 227.045 45.9515L300.374 51.0442ZM330.207 55.1294C334.228 48.7308 329.971 40.3561 322.432 39.8327L211.843 32.1559C205.147 31.6911 199.904 37.8235 201.403 44.3656L206.948 68.5619C207.917 72.7888 211.499 75.9097 215.819 76.2896L246.48 78.9865C253.921 79.641 258.044 87.9266 254.078 94.257L233.003 127.898C229.037 134.229 233.159 142.514 240.601 143.169L266.998 145.491C270.736 145.82 274.344 144.027 276.341 140.85L330.207 55.1294Z" fill="url(#paint1_linear)"/>
<defs>
<linearGradient id="paint0_linear" x1="252.95" y1="129.493" x2="25.8723" y2="183.644" gradientUnits="userSpaceOnUse">
<stop stop-color="#053C73"/>
<stop offset="1" stop-color="#07519A" stop-opacity="0.9"/>
</linearGradient>
<linearGradient id="paint1_linear" x1="344.28" y1="62.7407" x2="212.962" y2="94.056" gradientUnits="userSpaceOnUse">
<stop stop-color="#D9B734"/>
<stop offset="1" stop-color="#ECC739" stop-opacity="0.84"/>
</linearGradient>
</defs>
</svg>
