<svg width="303" height="558" viewBox="0 0 303 558" fill="none" xmlns="http://www.w3.org/2000/svg">
<path d="M245.261 367.857C245.782 368.505 245.946 369.377 245.598 369.652L82.4701 498.05C82.2085 498.256 81.7398 498.048 81.3526 497.553L37.9715 442.173C37.4642 441.526 37.3111 440.674 37.6533 440.404L126.049 370.465L161.229 342.634C161.571 342.363 161.418 341.511 160.911 340.864L116.079 283.632L17.0311 157.205C16.7156 156.802 16.5198 156.292 16.5297 155.898L18.2553 87.2055C18.2736 86.4792 18.9495 86.4842 19.5372 87.2149L245.261 367.857ZM302.541 389.844C302.89 389.57 302.726 388.698 302.204 388.049L-8.71722 1.49832C-9.3049 0.767688 -9.98078 0.76265 -9.9991 1.48879L-14.1939 167.644C-14.2038 168.038 -14.0081 168.549 -13.6926 168.952L104.78 320.18C105.287 320.828 105.44 321.68 105.098 321.95L-18.4773 419.72C-18.8195 419.991 -18.6663 420.842 -18.159 421.49L88.162 557.208C88.5491 557.702 89.0178 557.911 89.2794 557.705L302.541 389.844Z" fill="url(#paint0_linear)" fill-opacity="0.1"/>
<defs>
<linearGradient id="paint0_linear" x1="301.597" y1="472.238" x2="-20.0305" y2="465.949" gradientUnits="userSpaceOnUse">
<stop stop-color="#307FE2"/>
<stop offset="1" stop-color="#307FE2" stop-opacity="0"/>
</linearGradient>
</defs>
</svg>
