<svg width="291" height="100" viewBox="0 0 291 100" fill="none" xmlns="http://www.w3.org/2000/svg">
<path d="M73.4647 48.3701C74.1321 48.7246 74.1802 49.6629 73.5526 50.0838L27.7258 80.8145C27.4142 81.0235 27.0117 81.0404 26.6836 80.8583L17.8563 75.9587C17.2032 75.5961 17.1637 74.6715 17.7835 74.2545L42.3106 57.7578L51.3714 51.664C51.9913 51.2471 51.9518 50.3224 51.2987 49.9599L41.7491 44.6593L18.5252 31.7715C18.1461 31.5611 17.9457 31.1303 18.0291 30.7048L19.8606 21.3585C19.9897 20.6998 20.7182 20.3528 21.311 20.6677L73.4647 48.3701ZM88.493 49.3177C89.1207 48.8967 89.0726 47.9585 88.4051 47.6039L15.7645 9.0224C15.1717 8.70758 14.4433 9.05447 14.3141 9.71307L9.40979 34.7149C9.32631 35.1404 9.52664 35.5713 9.90583 35.7817L36.5905 50.5913C37.2437 50.9539 37.2833 51.8786 36.6634 52.2955L3.07561 74.8859C2.45572 75.3029 2.49523 76.2276 3.14843 76.5901L27.0585 89.8599C27.3866 90.042 27.789 90.0251 28.1007 89.8161L88.493 49.3177Z" fill="url(#paint0_linear)" fill-opacity="0.8"/>
<path d="M138.902 45.7973C139.569 46.1518 139.617 47.0901 138.99 47.511L93.1631 78.2418C92.8514 78.4508 92.4489 78.4677 92.1208 78.2856L83.2936 73.3859C82.6404 73.0234 82.6009 72.0987 83.2208 71.6818L107.748 55.1851L116.809 49.0912C117.429 48.6743 117.389 47.7497 116.736 47.3871L107.186 42.0866L83.9625 29.1987C83.5834 28.9883 83.383 28.5575 83.4664 28.132L85.2979 18.7858C85.4269 18.1271 86.1555 17.7801 86.7483 18.0949L138.902 45.7973ZM153.93 46.7449C154.558 46.324 154.51 45.3857 153.842 45.0312L81.2017 6.44964C80.609 6.13482 79.8805 6.48171 79.7514 7.14031L74.847 32.1421C74.7636 32.5677 74.9639 32.9985 75.3431 33.209L102.028 48.0186C102.681 48.3811 102.721 49.3058 102.101 49.7227L68.5129 72.3132C67.893 72.7301 67.9325 73.6548 68.5857 74.0173L92.4957 87.2871C92.8239 87.4692 93.2263 87.4523 93.538 87.2433L153.93 46.7449Z" fill="url(#paint1_linear)" fill-opacity="0.8"/>
<path d="M204.356 42.9111C205.024 43.2656 205.072 44.2039 204.444 44.6248L158.618 75.3555C158.306 75.5645 157.903 75.5815 157.575 75.3993L148.748 70.4997C148.095 70.1371 148.055 69.2125 148.675 68.7956L173.202 52.2988L182.263 46.205C182.883 45.7881 182.844 44.8634 182.19 44.5009L172.641 39.2003L149.417 26.3125C149.038 26.1021 148.837 25.6713 148.921 25.2458L150.752 15.8996C150.881 15.2408 151.61 14.8938 152.203 15.2087L204.356 42.9111ZM219.385 43.8587C220.012 43.4377 219.964 42.4995 219.297 42.145L146.656 3.56341C146.063 3.24859 145.335 3.59548 145.206 4.25408L140.302 29.2559C140.218 29.6814 140.418 30.1123 140.798 30.3228L167.482 45.1323C168.135 45.4949 168.175 46.4196 167.555 46.8365L133.967 69.4269C133.347 69.8439 133.387 70.7686 134.04 71.1311L157.95 84.4009C158.278 84.583 158.681 84.5661 158.992 84.3571L219.385 43.8587Z" fill="url(#paint2_linear)" fill-opacity="0.8"/>
<path d="M269.811 40.0249C270.478 40.3794 270.527 41.3176 269.899 41.7385L224.072 72.4693C223.76 72.6783 223.358 72.6952 223.03 72.5131L214.203 67.6134C213.549 67.2509 213.51 66.3262 214.13 65.9093L238.657 49.4126L247.718 43.3188C248.338 42.9019 248.298 41.9772 247.645 41.6146L238.095 36.3141L214.872 23.4263C214.492 23.2159 214.292 22.7851 214.375 22.3596L216.207 13.0133C216.336 12.3546 217.065 12.0076 217.657 12.3225L269.811 40.0249ZM284.839 40.9724C285.467 40.5515 285.419 39.6132 284.751 39.2587L212.111 0.677181C211.518 0.362363 210.79 0.709253 210.66 1.36785L205.756 26.3697C205.673 26.7952 205.873 27.2261 206.252 27.4365L232.937 42.2461C233.59 42.6086 233.63 43.5333 233.01 43.9503L199.422 66.5407C198.802 66.9576 198.842 67.8823 199.495 68.2449L223.405 81.5147C223.733 81.6968 224.135 81.6799 224.447 81.4709L284.839 40.9724Z" fill="url(#paint3_linear)" fill-opacity="0.8"/>
<defs>
<linearGradient id="paint0_linear" x1="87.3954" y1="61.6744" x2="7.16736" y2="46.6708" gradientUnits="userSpaceOnUse">
<stop stop-color="#307FE2"/>
<stop offset="1" stop-color="#307FE2" stop-opacity="0"/>
</linearGradient>
<linearGradient id="paint1_linear" x1="152.833" y1="59.1017" x2="72.6046" y2="44.098" gradientUnits="userSpaceOnUse">
<stop stop-color="#307FE2"/>
<stop offset="1" stop-color="#307FE2" stop-opacity="0"/>
</linearGradient>
<linearGradient id="paint2_linear" x1="218.287" y1="56.2154" x2="138.059" y2="41.2118" gradientUnits="userSpaceOnUse">
<stop stop-color="#307FE2"/>
<stop offset="1" stop-color="#307FE2" stop-opacity="0"/>
</linearGradient>
<linearGradient id="paint3_linear" x1="283.742" y1="53.3292" x2="203.514" y2="38.3256" gradientUnits="userSpaceOnUse">
<stop stop-color="#307FE2"/>
<stop offset="1" stop-color="#307FE2" stop-opacity="0"/>
</linearGradient>
</defs>
</svg>
