<svg width="241" height="203" viewBox="0 0 241 203" fill="none" xmlns="http://www.w3.org/2000/svg">
<mask id="mask0" mask-type="alpha" maskUnits="userSpaceOnUse" x="0" y="0" width="241" height="203">
<rect width="241" height="203" rx="10" fill="#EFF2F7"/>
</mask>
<g mask="url(#mask0)">
<path d="M147.929 213.017L154.256 189.404C157.612 176.879 155.852 163.533 149.363 152.302C142.874 141.07 132.188 132.874 119.655 129.516L25.144 104.192C12.6111 100.834 -0.741721 102.589 -11.977 109.071C-23.2122 115.553 -31.4095 126.231 -34.7656 138.756L-41.0927 162.369" stroke="#FDB32F" stroke-width="23.5673" stroke-linecap="round" stroke-linejoin="round"/>
<path d="M85.0531 69.6299C111.152 76.623 137.974 61.1482 144.963 35.0659C151.951 8.98361 136.46 -17.8292 110.362 -24.8223C84.263 -31.8154 57.4406 -16.3405 50.4518 9.74175C43.4631 35.824 58.9546 62.6369 85.0531 69.6299Z" stroke="#FDB32F" stroke-width="23.5673" stroke-linecap="round" stroke-linejoin="round"/>
<g opacity="0.1">
<path d="M158.022 253.164L164.349 229.551C167.705 217.025 165.945 203.679 159.456 192.448C152.967 181.217 142.281 173.021 129.748 169.662L35.2367 144.338C22.7038 140.98 9.35096 142.735 -1.88428 149.217C-13.1195 155.699 -21.3168 166.377 -24.6729 178.902L-31 202.515" stroke="#FAB900" stroke-width="23.5673" stroke-linecap="round" stroke-linejoin="round"/>
<path d="M95.1458 109.776C121.244 116.769 148.067 101.295 155.055 75.2124C162.044 49.1301 146.553 22.3172 120.454 15.3242C94.3557 8.33111 67.5332 23.806 60.5445 49.8882C53.5558 75.9705 69.0473 102.783 95.1458 109.776Z" stroke="#FAB900" stroke-width="23.5673" stroke-linecap="round" stroke-linejoin="round"/>
</g>
</g>
</svg>
