<svg width="63" height="36" viewBox="0 0 63 36" fill="none" xmlns="http://www.w3.org/2000/svg">
<path d="M13.1417 6.25309L30.3886 23.8527L28.7175 28.8657L19.3352 19.3302L15.5639 15.4975L13.8622 20.6026L10.1676 31.7018L5.20047 31.6558L13.1417 6.25309ZM11.6393 0.0136719L0.708618 34.9059L12.5285 35.0133L16.9897 21.6297L30.1433 35.0133L34.1599 22.9788L11.6393 0.0136719Z" fill="white"/>
<path d="M53.1698 3.32501L58.1369 3.37097L50.1803 28.7737L32.9334 11.1743L34.6045 6.16116L43.9868 15.6968L47.7581 19.5294L49.4598 14.4244L53.1698 3.32501ZM50.7935 0.0136719L46.3323 13.3972L33.1787 0.0136719L29.1621 12.0482L51.6827 35.0133L62.6134 0.120866L50.7935 0.0136719Z" fill="white"/>
</svg>
