<svg width="29" height="29" viewBox="0 0 29 29" fill="none" xmlns="http://www.w3.org/2000/svg">
<path d="M21.5132 11.891C22.1657 12.24 22.2263 13.1522 21.6257 13.5844L8.82947 22.7945C8.51413 23.0215 8.09588 23.0453 7.75685 22.8555L6.36659 22.0773C5.72871 21.7202 5.67702 20.8217 6.26975 20.3939L12.925 15.5897L14.8437 14.2048C15.4364 13.777 15.3848 12.8785 14.7469 12.5214L12.7433 11.3999L6.04 7.64842C5.66621 7.43923 5.46717 7.01522 5.54502 6.59402L5.84209 4.98687C5.96513 4.3212 6.70017 3.96756 7.29709 4.28685L21.5132 11.891ZM26.208 13.2532C26.8086 12.821 26.7479 11.9088 26.0955 11.5598L5.58707 0.590736C4.99022 0.271506 4.25528 0.625026 4.13213 1.29059L2.90414 7.9273C2.82619 8.34854 3.02522 8.77263 3.39905 8.98186L10.2357 12.8083C10.8736 13.1653 10.9253 14.0638 10.3326 14.4917L1.75875 20.6806C1.166 21.1085 1.21771 22.007 1.85563 22.364L7.87843 25.735C8.21744 25.9247 8.63567 25.9009 8.951 25.674L26.208 13.2532Z" fill="#224586"/>
</svg>
