<svg width="29" height="29" viewBox="0 0 29 29" fill="none" xmlns="http://www.w3.org/2000/svg">
<path d="M8.0503 17.0581C7.43074 16.6536 7.44987 15.7396 8.08581 15.3613L21.6361 7.30156C21.97 7.10295 22.3887 7.11572 22.7099 7.33432L24.0271 8.23075C24.6314 8.64205 24.6046 9.54163 23.9768 9.9162L16.9282 14.122L14.8961 15.3344C14.2683 15.7089 14.2415 16.6085 14.8458 17.0198L16.7441 18.3118L23.0949 22.6332C23.449 22.8741 23.6103 23.3139 23.4961 23.7267L23.0601 25.3018C22.8795 25.9542 22.1164 26.2425 21.5496 25.8724L8.0503 17.0581ZM3.49211 15.2919C2.85616 15.6702 2.83704 16.5842 3.45663 16.9887L22.931 29.7035C23.4977 30.0735 24.2607 29.7854 24.4414 29.1331L26.2431 22.6286C26.3575 22.2158 26.1962 21.776 25.842 21.535L19.3649 17.1273C18.7605 16.716 18.7873 15.8164 19.4151 15.4418L28.4957 10.0237C29.1234 9.64913 29.1502 8.74951 28.5459 8.33823L22.8398 4.4552C22.5186 4.23663 22.0999 4.22387 21.766 4.42248L3.49211 15.2919Z" fill="#224586"/>
</svg>
