<svg width="360" height="293" fill="none" xmlns="http://www.w3.org/2000/svg"><path d="M189.177 110.111c7.538.523 11.795 8.898 7.774 15.296l-75.308 119.842a10 10 0 01-9.344 4.641l-12.803-1.127c-7.441-.655-11.563-8.94-7.598-15.27l38.698-61.771 10.393-16.589c3.966-6.33-.157-14.615-7.598-15.27l-19.505-1.717-70.504-6.199a10 10 0 01-8.87-7.726l-2.778-12.108c-1.5-6.543 3.743-12.677 10.44-12.212l147.003 10.21zm45.918-4.091c4.021-6.399-.235-14.773-7.774-15.297l-213.193-14.8c-6.695-.464-11.939 5.668-10.44 12.21l12.97 56.596a10 10 0 008.871 7.728l70.167 6.172c7.442.654 11.564 8.94 7.599 15.271l-49.09 78.357c-3.966 6.331.157 14.616 7.598 15.271l61.951 5.449a10 10 0 009.343-4.641L235.095 106.02z" fill="url(#paint0_linear)"/><path d="M300.374 51.044c7.539.524 11.795 8.898 7.774 15.297l-38.726 61.626a9.094 9.094 0 01-8.497 4.221c-6.767-.596-10.516-8.131-6.91-13.888l19.508-31.139 2.354-3.757c3.965-6.33-.157-14.615-7.598-15.27l-4.419-.39-38.265-3.364a9.243 9.243 0 01-8.2-7.14c-1.387-6.049 3.46-11.718 9.65-11.288l73.329 5.092zm29.833 4.085c4.021-6.398-.236-14.773-7.775-15.296l-110.589-7.677c-6.696-.465-11.939 5.668-10.44 12.21l5.545 24.196a10 10 0 008.871 7.728l30.661 2.697c7.441.654 11.564 8.94 7.598 15.27l-21.075 33.641c-3.966 6.331.156 14.616 7.598 15.271l26.397 2.322a10.001 10.001 0 009.343-4.641l53.866-85.72z" fill="url(#paint1_linear)"/><defs><linearGradient id="paint0_linear" x1="252.95" y1="129.493" x2="25.872" y2="183.644" gradientUnits="userSpaceOnUse"><stop stop-color="#053C73"/><stop offset="1" stop-color="#07519A" stop-opacity=".9"/></linearGradient><linearGradient id="paint1_linear" x1="344.28" y1="62.741" x2="212.962" y2="94.056" gradientUnits="userSpaceOnUse"><stop stop-color="#D9B734"/><stop offset="1" stop-color="#ECC739" stop-opacity=".84"/></linearGradient></defs></svg>