<svg width="303" height="558" fill="none" xmlns="http://www.w3.org/2000/svg"><path d="M245.261 367.857c.521.648.685 1.52.337 1.795L82.47 498.05c-.261.206-.73-.002-1.117-.497l-43.381-55.38c-.508-.647-.66-1.499-.319-1.769l88.396-69.939 35.18-27.831c.342-.271.189-1.123-.318-1.77l-44.832-57.232-99.048-126.427c-.315-.403-.511-.913-.501-1.307l1.725-68.692c.019-.727.695-.722 1.282.009l225.724 280.642zm57.28 21.987c.349-.274.185-1.146-.337-1.795L-8.717 1.499C-9.305.767-9.981.762-10 1.488l-4.195 166.155c-.01.394.186.905.501 1.308L104.78 320.18c.507.648.66 1.5.318 1.77l-123.575 97.77c-.343.271-.19 1.122.318 1.77L88.162 557.208c.387.494.856.703 1.117.497l213.262-167.861z" fill="url(#paint0_linear)" fill-opacity=".1"/><defs><linearGradient id="paint0_linear" x1="301.597" y1="472.238" x2="-20.03" y2="465.949" gradientUnits="userSpaceOnUse"><stop stop-color="#307FE2"/><stop offset="1" stop-color="#307FE2" stop-opacity="0"/></linearGradient></defs></svg>