<svg width="52" height="88" fill="none" xmlns="http://www.w3.org/2000/svg"><path d="M28.749 39.742a1 1 0 01-1.714.088l-16.33-24.352a1 1 0 01-.044-1.043l2.205-3.971a1 1 0 011.704-.073l8.663 12.88 2.942 4.373a1 1 0 001.704-.072l2.558-4.61 6.93-12.487a1 1 0 011.067-.496l4.223.828a1 1 0 01.691 1.45L28.749 39.742zm-1.292 8.305a1 1 0 001.713-.088L49.753 9.206a1 1 0 00-.69-1.45L36.227 5.238a1 1 0 00-1.067.496l-7.63 13.748a1 1 0 01-1.704.073L14.223 2.301a1 1 0 00-1.704.073L5.71 14.642a1 1 0 00.043 1.042l21.703 32.363z" fill="url(#paint0_linear)" fill-opacity=".8"/><path d="M30.164 75.732a1 1 0 01-1.713.088L12.12 51.468a1 1 0 01-.044-1.042l2.204-3.972a1 1 0 011.704-.073l8.663 12.88 2.942 4.374a1 1 0 001.704-.073l2.558-4.61 6.93-12.486a1 1 0 011.067-.497l4.223.828a1 1 0 01.691 1.45L30.164 75.733zm-1.292 8.305a1 1 0 001.713-.088l20.583-38.752a1 1 0 00-.69-1.45l-12.835-2.518a1 1 0 00-1.067.496l-7.63 13.748a1 1 0 01-1.704.072L15.638 38.292a1 1 0 00-1.704.073L7.126 50.632a1 1 0 00.043 1.042l21.703 32.363z" fill="url(#paint1_linear)" fill-opacity=".8"/><defs><linearGradient id="paint0_linear" x1="21.079" y1="48.068" x2="29.331" y2="3.942" gradientUnits="userSpaceOnUse"><stop stop-color="#307FE2"/><stop offset="1" stop-color="#307FE2" stop-opacity="0"/></linearGradient><linearGradient id="paint1_linear" x1="22.494" y1="84.058" x2="30.746" y2="39.932" gradientUnits="userSpaceOnUse"><stop stop-color="#307FE2"/><stop offset="1" stop-color="#307FE2" stop-opacity="0"/></linearGradient></defs></svg>