<svg width="291" height="100" fill="none" xmlns="http://www.w3.org/2000/svg"><path d="M73.465 48.37a1 1 0 01.088 1.714l-45.827 30.73a1 1 0 01-1.042.044l-8.828-4.9a1 1 0 01-.073-1.704l24.528-16.496 9.06-6.094a1 1 0 00-.072-1.704l-9.55-5.3-23.224-12.888a1 1 0 01-.496-1.067l1.832-9.346a1 1 0 011.45-.691L73.465 48.37zm15.028.948a1 1 0 00-.088-1.714L15.765 9.022a1 1 0 00-1.45.691L9.41 34.715a1 1 0 00.496 1.067l26.684 14.81a1 1 0 01.073 1.703L3.076 74.885a1 1 0 00.072 1.705l23.91 13.27a1 1 0 001.043-.044l60.392-40.498z" fill="url(#paint0_linear)" fill-opacity=".8"/><path d="M138.902 45.797a1 1 0 01.088 1.714l-45.827 30.73a1 1 0 01-1.042.045l-8.827-4.9a1 1 0 01-.073-1.704l24.527-16.497 9.061-6.094a1 1 0 00-.073-1.704l-9.55-5.3-23.224-12.888a1 1 0 01-.496-1.067l1.832-9.346a1 1 0 011.45-.691l52.154 27.702zm15.028.948a1 1 0 00-.088-1.714L81.202 6.45a1 1 0 00-1.45.69l-4.905 25.002a1 1 0 00.496 1.067l26.685 14.81a1 1 0 01.073 1.704l-33.588 22.59a1 1 0 00.073 1.704l23.91 13.27a1 1 0 001.042-.044l60.392-40.498z" fill="url(#paint1_linear)" fill-opacity=".8"/><path d="M204.356 42.911a1 1 0 01.088 1.714l-45.826 30.73a1.001 1.001 0 01-1.043.044l-8.827-4.9a1 1 0 01-.073-1.703l24.527-16.497 9.061-6.094a1 1 0 00-.073-1.704l-9.549-5.3-23.224-12.889a1 1 0 01-.496-1.066l1.831-9.346a1 1 0 011.451-.691l52.153 27.702zm15.029.948a1 1 0 00-.088-1.714L146.656 3.563a1 1 0 00-1.45.691l-4.904 25.002a.998.998 0 00.496 1.067l26.684 14.81a1 1 0 01.073 1.703l-33.588 22.59a1 1 0 00.073 1.705l23.91 13.27a1 1 0 001.042-.044l60.393-40.498z" fill="url(#paint2_linear)" fill-opacity=".8"/><path d="M269.811 40.025a1 1 0 01.088 1.714l-45.827 30.73a1 1 0 01-1.042.044l-8.827-4.9a1 1 0 01-.073-1.704l24.527-16.496 9.061-6.094a1 1 0 00-.073-1.704l-9.55-5.3-23.223-12.889a1 1 0 01-.497-1.066l1.832-9.347a1 1 0 011.45-.69l52.154 27.702zm15.028.947a1 1 0 00-.088-1.713L212.111.677a1 1 0 00-1.451.69l-4.904 25.003a1 1 0 00.496 1.066l26.685 14.81a1 1 0 01.073 1.704l-33.588 22.59a1 1 0 00.073 1.705l23.91 13.27a1 1 0 001.042-.044l60.392-40.499z" fill="url(#paint3_linear)" fill-opacity=".8"/><defs><linearGradient id="paint0_linear" x1="87.395" y1="61.674" x2="7.167" y2="46.671" gradientUnits="userSpaceOnUse"><stop stop-color="#307FE2"/><stop offset="1" stop-color="#307FE2" stop-opacity="0"/></linearGradient><linearGradient id="paint1_linear" x1="152.833" y1="59.102" x2="72.605" y2="44.098" gradientUnits="userSpaceOnUse"><stop stop-color="#307FE2"/><stop offset="1" stop-color="#307FE2" stop-opacity="0"/></linearGradient><linearGradient id="paint2_linear" x1="218.287" y1="56.215" x2="138.059" y2="41.212" gradientUnits="userSpaceOnUse"><stop stop-color="#307FE2"/><stop offset="1" stop-color="#307FE2" stop-opacity="0"/></linearGradient><linearGradient id="paint3_linear" x1="283.742" y1="53.329" x2="203.514" y2="38.326" gradientUnits="userSpaceOnUse"><stop stop-color="#307FE2"/><stop offset="1" stop-color="#307FE2" stop-opacity="0"/></linearGradient></defs></svg>