<svg width="241" height="203" fill="none" xmlns="http://www.w3.org/2000/svg"><mask id="a" maskUnits="userSpaceOnUse" x="0" y="0" width="241" height="203"><rect width="241" height="203" rx="10" fill="#EFF2F7"/></mask><g mask="url(#a)" stroke-width="23.567" stroke-linecap="round" stroke-linejoin="round"><path d="M147.929 213.017l6.327-23.613a48.876 48.876 0 00-4.893-37.102 48.934 48.934 0 00-29.708-22.786l-94.511-25.324a48.939 48.939 0 00-37.121 4.879 48.877 48.877 0 00-22.789 29.685l-6.327 23.613M85.053 69.63c26.099 6.993 52.921-8.482 59.91-34.564 6.988-26.082-8.503-52.895-34.601-59.888-26.099-6.993-52.921 8.482-59.91 34.564-6.989 26.082 8.503 52.895 34.601 59.888z" stroke="#FDB32F"/><g opacity=".1" stroke="#FAB900"><path d="M158.022 253.164l6.327-23.613a48.878 48.878 0 00-4.893-37.103 48.941 48.941 0 00-29.708-22.786l-94.511-25.324a48.939 48.939 0 00-37.121 4.879 48.876 48.876 0 00-22.789 29.685L-31 202.515M95.146 109.776c26.098 6.993 52.921-8.481 59.909-34.564 6.989-26.082-8.502-52.895-34.601-59.888-26.098-6.993-52.92 8.482-59.91 34.564-6.988 26.083 8.503 52.895 34.602 59.888z"/></g></g></svg>