<svg width="1535" height="263" fill="none" xmlns="http://www.w3.org/2000/svg"><g clip-path="url(#clip0)"><path d="M543.576 125.544l46.36-122.22h23.825l46.359 122.231h-25.652L623.834 94.58h-45.445l-10.634 30.975h-24.179v-.011zm41.232-50.026h32.436l-16.127-47.456-16.309 47.456zM672.946 155.422l9.708-15.944c6.476 4.397 14.848 6.601 25.104 6.601 5.62 0 10.325-1.736 14.106-5.219 3.78-3.484 5.676-8.224 5.676-14.197v-9.343a46.398 46.398 0 01-9.617 5.859c-3.483 1.588-8.097 2.387-13.831 2.387-8.189 0-15.236-1.804-21.164-5.402-5.927-3.598-10.45-8.554-13.557-14.848-3.118-6.293-4.671-13.465-4.671-21.529 0-8.555 1.987-16.31 5.95-23.277 3.964-6.967 9.594-12.495 16.858-16.584 7.264-4.088 15.853-6.144 25.744-6.144 7.447 0 14.357.617 20.707 1.827 6.35 1.222 11.421 2.502 15.213 3.85v83.558c0 7.938-1.77 14.722-5.311 20.341-3.54 5.62-8.406 9.869-14.573 12.735-6.168 2.867-13.226 4.306-21.164 4.306-8.92 0-16.001-.799-21.255-2.387-5.243-1.587-9.891-3.78-13.923-6.59zm54.617-66.347v-30.78a30.705 30.705 0 00-5.311-1.371c-1.827-.308-4.705-.457-8.612-.457-5.859 0-10.781 1.257-14.756 3.758-3.975 2.501-6.99 5.768-9.069 9.8-2.078 4.031-3.118 8.428-3.118 13.191 0 6.602 1.645 12.152 4.946 16.675 3.301 4.523 8.612 6.785 15.944 6.785 13.317 0 19.976-5.871 19.976-17.6zM839.527 99.891l11.73 13.192-3.027 3.027c-1.645 1.644-4.032 3.426-7.15 5.311-3.118 1.896-7.081 3.54-11.912 4.945-4.831 1.405-10.599 2.113-17.315 2.113-9.16 0-17.132-1.987-23.916-5.95-6.785-3.964-12.061-9.503-15.853-16.584-3.792-7.081-5.677-15.214-5.677-24.373 0-8.43 1.862-16.036 5.585-22.82 3.724-6.785 8.852-12.153 15.396-16.127 6.533-3.964 14.083-5.95 22.626-5.95 7.938 0 14.597 1.404 19.976 4.214 5.38 2.81 9.708 6.567 13.009 11.272 3.301 4.706 5.677 9.983 7.15 15.853a73.959 73.959 0 012.204 17.955v3.118h-64.142c0 4.157 1.188 7.79 3.575 10.907 2.387 3.118 5.402 5.562 9.068 7.333 3.666 1.77 7.39 2.661 11.182 2.661 5.619 0 10.256-.64 13.922-1.919 3.667-1.279 6.602-2.718 8.795-4.306 2.204-1.61 3.792-2.889 4.774-3.872zm-59.38-73.302L799.21.571h20.341l19.062 26.018h-19.062l-10.256-13.923-10.074 13.923h-19.074zm7.881 46.919h42.145c0-2.935-.765-5.836-2.296-8.703-1.53-2.867-3.757-5.254-6.693-7.15-2.935-1.896-6.658-2.844-11.181-2.844-4.763 0-8.772.948-12.004 2.844-3.244 1.896-5.711 4.283-7.424 7.15-1.69 2.867-2.547 5.768-2.547 8.703zM869.029 125.544V39.598h20.706l.549 9.708c2.204-2.444 5.379-4.98 9.525-7.606 4.158-2.627 9.594-3.94 16.31-3.94 10.633 0 18.788 3.209 24.464 9.616 5.677 6.419 8.521 15.053 8.521 25.926v52.23h-21.621V73.508c0-5.38-1.496-9.594-4.488-12.643-2.993-3.05-6.876-4.58-11.639-4.58-5.985 0-10.93 2.204-14.848 6.601-3.906 4.397-5.859 9.777-5.859 16.127v46.542h-21.62v-.011zM1032.86 100.257l12.82 13.922c-4.03 4.283-8.83 7.698-14.39 10.257-5.56 2.57-11.94 3.849-19.15 3.849-9.78 0-18.116-1.919-25.015-5.768-6.898-3.849-12.152-9.217-15.761-16.127-3.609-6.899-5.402-14.87-5.402-23.916 0-8.304 1.953-15.945 5.859-22.912 3.906-6.967 9.32-12.517 16.218-16.675 6.899-4.157 14.941-6.236 24.101-6.236 6.97 0 13.32 1.256 19.06 3.758 5.75 2.5 10.63 5.893 14.67 10.165l-13.74 13.922c-2.32-2.81-5.17-5.002-8.52-6.601-3.36-1.588-7.18-2.387-11.46-2.387-5.49 0-10.05 1.279-13.649 3.849-3.609 2.57-6.293 5.893-8.063 9.982-1.771 4.089-2.662 8.463-2.662 13.1 0 4.283.88 8.498 2.662 12.644 1.77 4.157 4.454 7.572 8.063 10.268 3.599 2.684 8.159 4.031 13.649 4.031 4.27 0 8.21-.822 11.82-2.478 3.6-1.611 6.56-3.838 8.89-6.647zM1060.34 26.04V3.325h23.09v22.728h-23.09v-.011zm.74 99.504V39.598h21.62v85.946h-21.62zM1156.17 125.544l-.54-8.064c-2.32 2.81-5.9 5.311-10.73 7.516-4.83 2.204-10.11 3.3-15.85 3.3-4.65 0-9.25-.982-13.83-2.935s-8.38-5.002-11.37-9.16c-2.99-4.157-4.49-9.411-4.49-15.761 0-9.777 3.49-17.35 10.45-22.729 6.97-5.38 16.06-8.063 27.31-8.063 2.08 0 4.55.068 7.43.182 2.86.126 6.56.309 11.09.549v-2.01c0-4.272-1.72-7.63-5.13-10.074-3.43-2.444-7.88-3.666-13.38-3.666-6.11 0-10.99.8-14.66 2.387s-6.9 3.3-9.71 5.128l-9.89-14.665c2.32-1.713 5.07-3.392 8.25-5.037 3.17-1.645 7.08-3.027 11.73-4.123 4.63-1.097 10.38-1.645 17.22-1.645 11 0 19.79 2.901 26.38 8.703 6.6 5.802 9.89 13.283 9.89 22.443v57.724h-20.17zm-.54-30.415v-8.43c-2.81-.239-5.86-.422-9.16-.547-3.31-.115-5.81-.183-7.52-.183-6.97 0-11.86 1.37-14.67 4.123-2.8 2.752-4.21 5.893-4.21 9.434 0 3.666 1.31 6.533 3.94 8.612 2.63 2.078 6.51 3.118 11.64 3.118 3.41 0 6.62-.731 9.62-2.205 2.99-1.461 5.47-3.415 7.42-5.859 1.96-2.444 2.94-5.128 2.94-8.063zM1221.05 125.544l-31.7-122.22h25.29l19.98 91.439 23.64-87.956h20.89l23.82 87.956 19.8-91.44h24.19l-32.08 122.232h-24.19l-22.72-80.818-23.1 80.818h-23.82v-.011zM1420.25 99.891l11.73 13.192c-.37.366-1.37 1.371-3.03 3.027-1.64 1.645-4.03 3.426-7.15 5.311-3.12 1.896-7.08 3.54-11.91 4.945-4.83 1.405-10.6 2.113-17.32 2.113-9.16 0-17.13-1.987-23.91-5.95-6.79-3.964-12.06-9.503-15.86-16.584-3.79-7.081-5.67-15.213-5.67-24.373 0-8.43 1.86-16.036 5.58-22.82 3.73-6.785 8.85-12.153 15.4-16.127 6.53-3.964 14.08-5.95 22.64-5.95 7.93 0 14.59 1.404 19.97 4.214 5.38 2.81 9.71 6.567 13.01 11.273 3.3 4.705 5.68 9.982 7.15 15.852a74.054 74.054 0 012.2 17.955v3.118h-64.14c0 4.157 1.19 7.79 3.58 10.907 2.38 3.118 5.4 5.563 9.07 7.333 3.66 1.77 7.38 2.661 11.18 2.661 5.62 0 10.25-.64 13.92-1.919s6.6-2.718 8.79-4.306c2.2-1.61 3.78-2.889 4.77-3.872zm-51.5-26.383h42.14c0-2.935-.76-5.836-2.29-8.703-1.53-2.867-3.76-5.254-6.7-7.15-2.93-1.896-6.65-2.844-11.18-2.844-4.76 0-8.77.948-12 2.844-3.25 1.896-5.71 4.283-7.43 7.15-1.69 2.867-2.54 5.768-2.54 8.703zM1449.75 122.803V3.323h21.62v42.145c1.46-1.462 4.3-3.118 8.52-4.945 4.21-1.828 9.19-2.753 14.94-2.753 8.3 0 15.39 1.988 21.25 5.95 5.86 3.976 10.36 9.252 13.47 15.854 3.11 6.601 4.67 13.922 4.67 21.986 0 8.555-1.99 16.367-5.95 23.459-3.97 7.093-9.56 12.77-16.77 17.041-7.2 4.272-15.82 6.419-25.83 6.419-7.46 0-14.32-.617-20.62-1.827-6.29-1.223-11.4-2.513-15.3-3.849zm21.62-47.285v32.437c1.71.491 3.48.913 5.31 1.279 1.83.365 4.71.548 8.61.548 5.86 0 10.78-1.313 14.76-3.94 3.96-2.627 6.99-6.042 9.07-10.257 2.08-4.214 3.11-8.703 3.11-13.465 0-4.398-.73-8.555-2.2-12.461-1.46-3.906-3.72-7.059-6.78-9.434-3.05-2.387-7.03-3.575-11.92-3.575-6.47 0-11.42 1.679-14.84 5.037-3.41 3.358-5.12 7.972-5.12 13.831zM541.909 261.607v-66.393h41.802v8.463h-32.254v19.314h24.282v8.555h-24.282v21.495h34.641v8.554h-44.189v.012zM592.677 255.93l5.47-5.973c1.657 1.656 3.644 2.981 5.974 3.986 2.318.994 5.014 1.496 8.063 1.496 2.981 0 5.471-.48 7.47-1.439 1.987-.959 2.981-2.467 2.981-4.534 0-1.462-.4-2.616-1.199-3.484-.8-.856-2.159-1.644-4.078-2.341-1.93-.697-4.58-1.439-7.961-2.239a39.142 39.142 0 01-6.967-2.444c-2.261-1.028-4.111-2.455-5.573-4.283-1.462-1.827-2.193-4.192-2.193-7.115 0-2.981.879-5.506 2.638-7.561 1.759-2.056 4.032-3.598 6.819-4.626 2.787-1.028 5.711-1.542 8.76-1.542 3.918 0 7.298.514 10.154 1.542 2.855 1.028 5.311 2.478 7.366 4.329l-4.877 6.167c-1.393-1.256-3.14-2.318-5.23-3.186-2.091-.857-4.535-1.291-7.322-1.291-2.855 0-5.139.468-6.864 1.393-1.725.926-2.592 2.456-2.592 4.58 0 1.988 1.164 3.473 3.483 4.432 2.319.959 5.311 1.873 8.954 2.741 2.924.662 5.563 1.542 7.915 2.638 2.353 1.097 4.249 2.57 5.677 4.432 1.428 1.862 2.136 4.283 2.136 7.264 0 3.049-.914 5.619-2.741 7.709-1.828 2.09-4.204 3.678-7.116 4.774-2.924 1.097-6.076 1.645-9.457 1.645-8.749 0-15.316-2.353-19.69-7.07zM676.875 249.466l5.471 5.768c-2.056 2.318-4.614 4.203-7.664 5.619-3.049 1.428-6.533 2.136-10.451 2.136-4.979 0-9.274-1.062-12.894-3.187-3.621-2.124-6.419-5.025-8.406-8.714-1.988-3.678-2.981-7.915-2.981-12.69 0-4.511 1.028-8.623 3.083-12.346 2.056-3.712 4.923-6.682 8.612-8.909 3.678-2.227 7.881-3.335 12.586-3.335 3.918 0 7.367.697 10.348 2.09 2.981 1.394 5.54 3.29 7.664 5.677l-5.871 5.676a15.15 15.15 0 00-5.071-4.077c-1.987-.994-4.351-1.496-7.07-1.496-3.186 0-5.927.776-8.212 2.341a15.197 15.197 0 00-5.23 6.122c-1.2 2.524-1.794 5.276-1.794 8.257 0 2.856.617 5.563 1.839 8.11 1.222 2.558 2.97 4.625 5.231 6.224 2.25 1.588 4.98 2.387 8.166 2.387 2.719 0 5.163-.514 7.322-1.542 2.158-1.016 3.929-2.387 5.322-4.111zM710.717 263c-4.717 0-8.921-1.108-12.644-3.335-3.712-2.227-6.624-5.208-8.714-8.954-2.091-3.747-3.141-7.847-3.141-12.29 0-4.511 1.05-8.623 3.141-12.346 2.09-3.712 4.991-6.682 8.714-8.909 3.712-2.227 7.927-3.335 12.644-3.335 4.705 0 8.908 1.108 12.586 3.335 3.678 2.227 6.59 5.197 8.714 8.909 2.125 3.712 3.187 7.835 3.187 12.346 0 4.443-1.062 8.543-3.187 12.29-2.124 3.746-5.025 6.738-8.714 8.954-3.678 2.227-7.869 3.335-12.586 3.335zm0-7.766c3.255 0 6.019-.811 8.314-2.445 2.285-1.621 4.044-3.734 5.277-6.316 1.222-2.592 1.839-5.276 1.839-8.063 0-2.787-.617-5.471-1.839-8.064-1.233-2.592-3.004-4.694-5.322-6.316-2.319-1.621-5.071-2.444-8.258-2.444-3.187 0-5.939.811-8.258 2.444a15.909 15.909 0 00-5.322 6.271c-1.234 2.558-1.839 5.265-1.839 8.109 0 2.787.628 5.459 1.896 8.018a16.886 16.886 0 005.322 6.316c2.273 1.667 5.014 2.49 8.19 2.49zM745.255 261.607v-66.393h8.954v66.393h-8.954zM795.623 261.607l-.194-5.574c-1.656 2.261-3.929 3.963-6.819 5.128-2.889 1.165-5.79 1.736-8.714 1.736-2.524 0-5.026-.468-7.516-1.393-2.489-.925-4.545-2.456-6.167-4.58-1.622-2.124-2.444-4.946-2.444-8.463 0-4.98 1.759-8.955 5.276-11.947 3.518-2.981 8.521-4.477 15.031-4.477 1.462 0 2.97.045 4.534.148 1.554.103 2.97.194 4.226.297 1.256.103 2.09.183 2.49.251v-1.69c0-3.449-1.051-5.928-3.141-7.412-2.09-1.497-4.922-2.239-8.509-2.239-3.449 0-6.224.48-8.315 1.439-2.09.959-3.837 1.942-5.231 2.935l-4.18-6.076c1.656-1.325 3.952-2.615 6.864-3.883 2.924-1.256 6.865-1.896 11.844-1.896 5.905 0 10.588 1.439 14.037 4.329 3.45 2.889 5.174 6.99 5.174 12.289v28.668c0 .662.034 1.462.103 2.387h-8.349v.023zm-.297-16.618v-5.277c-.331-.137-1.096-.251-2.284-.343-1.2-.103-2.536-.194-4.032-.297a62.881 62.881 0 00-4.329-.148c-3.323 0-5.859.479-7.618 1.439-1.759.959-2.958 2.159-3.586 3.586-.628 1.428-.948 2.833-.948 4.226 0 2.456.857 4.352 2.593 5.677 1.724 1.324 4.111 1.987 7.161 1.987 2.318 0 4.466-.514 6.419-1.542 1.953-1.028 3.552-2.376 4.774-4.032 1.233-1.667 1.85-3.426 1.85-5.276zM825.09 261.607h-8.954v-41.802-1.588c0-.594-.035-1.553-.103-2.89h8.555l.296 7.47c.731-1.062 1.748-2.227 3.039-3.484 1.29-1.256 2.935-2.352 4.922-3.289 1.987-.925 4.375-1.393 7.161-1.393.994 0 1.908.068 2.741.194.834.137 1.611.331 2.342.594l-1.987 8.36c-1.2-.468-2.719-.697-4.58-.697-2.524 0-4.797.651-6.819 1.942-2.022 1.291-3.632 3.004-4.831 5.128-1.199 2.125-1.793 4.477-1.793 7.07v24.385h.011z" fill="#fff"/><path d="M92.809 46.474l128.536 131.083-12.472 37.405-69.876-71.064-28.12-28.599-12.689 38.056-27.571 82.713-37.062-.319L92.809 46.474zM81.627 0L.24 260.008l88.035.776 33.225-99.663 97.996 99.663 29.901-89.692L81.627 0z" fill="#307FE2"/><path d="M391.044 24.716l37.062.32-59.242 189.263L240.327 83.216l12.472-37.405 69.876 71.064 28.12 28.599 12.689-38.056 27.56-82.702zM373.398 0l-33.225 99.663L242.178 0l-29.902 89.692 167.758 171.081L461.422.777 373.398 0z" fill="#F2B025"/></g><defs><clipPath id="clip0"><path fill="#fff" transform="translate(.239)" d="M0 0h1533.99v263H0z"/></clipPath></defs></svg>