<svg width="29" height="29" fill="none" xmlns="http://www.w3.org/2000/svg"><path d="M21.513 11.891a1 1 0 01.113 1.693l-12.797 9.21a1 1 0 01-1.072.061l-1.39-.778a1 1 0 01-.097-1.683l6.655-4.804 1.919-1.385a1 1 0 00-.097-1.684L12.743 11.4 6.04 7.648a1 1 0 01-.495-1.054l.297-1.607a1 1 0 011.455-.7l14.216 7.604zm4.695 1.362a1 1 0 00-.112-1.693L5.587.59a1 1 0 00-1.455.7L2.904 7.928A1 1 0 003.4 8.982l6.837 3.826a1 1 0 01.097 1.684L1.759 20.68a1 1 0 00.097 1.683l6.022 3.371a1 1 0 001.073-.061l17.257-12.42z" fill="#224586"/></svg>