<svg width="29" height="29" fill="none" xmlns="http://www.w3.org/2000/svg"><path d="M8.05 17.058a1 1 0 01.036-1.697l13.55-8.06a1 1 0 011.074.033l1.317.897a1 1 0 01-.05 1.685l-7.049 4.206-2.032 1.212a1 1 0 00-.05 1.686l1.898 1.292 6.35 4.321a1 1 0 01.402 1.094l-.436 1.575a1 1 0 01-1.51.57l-13.5-8.814zm-4.558-1.766a1 1 0 00-.035 1.697L22.93 29.703a1 1 0 001.51-.57l1.802-6.504a1 1 0 00-.401-1.094l-6.477-4.408a1 1 0 01.05-1.685l9.08-5.418a1 1 0 00.05-1.686L22.84 4.455a1 1 0 00-1.074-.033L3.492 15.292z" fill="#224586"/></svg>